HIERARCHY
ROOT Hips
{
  OFFSET 0 0 0
  CHANNELS 6 Xposition Yposition Zposition Zrotation Yrotation Xrotation
  JOINT LeftThigh
  {
    OFFSET 8.409438 0 -5.917753
    CHANNELS 3 Zrotation Yrotation Xrotation
    JOINT LeftLeg
    {
      OFFSET 0 0 -42.358652
      CHANNELS 3 Zrotation Yrotation Xrotation
      JOINT LeftFoot
      {
        OFFSET 0 0 -39.357303
        CHANNELS 3 Zrotation Yrotation Xrotation
      }
    }
  }
  JOINT RightThigh
  {
    OFFSET -8.409438 0 -5.917753
    CHANNELS 3 Zrotation Yrotation Xrotation
    JOINT RightLeg
    {
      OFFSET 0 0 -42.358652
      CHANNELS 3 Zrotation Yrotation Xrotation
      JOINT RightFoot
      {
        OFFSET 0 0 -39.357303
        CHANNELS 3 Zrotation Yrotation Xrotation
      }
    }
  }
  JOINT SpineLow
  {
    OFFSET 0 0 4.719101
    CHANNELS 3 Zrotation Yrotation Xrotation
    JOINT SpineMid
    {
      OFFSET 0 0 12.899191
      CHANNELS 3 Zrotation Yrotation Xrotation
      JOINT Chest
      {
        OFFSET 0 0 12.899191
        CHANNELS 3 Zrotation Yrotation Xrotation
        JOINT LeftShoulder
        {
          OFFSET 7.550562 1.41573 9.438202
          CHANNELS 3 Zrotation Yrotation Xrotation
          JOINT LeftArm
          {
            OFFSET 9.155056 0 4.247191
            CHANNELS 3 Zrotation Yrotation Xrotation
            JOINT LeftForearm
            {
              OFFSET 0 0 25.771955
              CHANNELS 3 Zrotation Yrotation Xrotation
              JOINT LeftHand
              {
                OFFSET 0 0 25.197169
                CHANNELS 3 Zrotation Yrotation Xrotation
              }
            }
          }
        }
        JOINT RightShoulder
        {
          OFFSET -7.550562 1.41573 9.438202
          CHANNELS 3 Zrotation Yrotation Xrotation
          JOINT RightArm
          {
            OFFSET -9.155056 0 4.247191
            CHANNELS 3 Zrotation Yrotation Xrotation
            JOINT RightForearm
            {
              OFFSET 0 0 -25.771955
              CHANNELS 3 Zrotation Yrotation Xrotation
              JOINT RightHand
              {
                OFFSET 0 0 -25.197169
                CHANNELS 3 Zrotation Yrotation Xrotation
              }
            }
          }
        }
        JOINT Neck
        {
          OFFSET 0 0 15.101124
          CHANNELS 3 Zrotation Yrotation Xrotation
          JOINT Head
          {
            OFFSET 0 0 11.325843
            CHANNELS 3 Zrotation Yrotation Xrotation
            End Site
            {
              OFFSET 0 0 14.157303
            }
          }
        }
      }
    }
  }
}
MOTION
Frames: 11
Frame Time: 0.0
0.0  101.685394  0.0  0.860747  26.77952  -97.790263  2.018838  -17.285503  1.179461  -18.690185  10.550916  20.473386  1.741107  2.569232  2.450865  -25.548614  16.377569  -3.785584  -17.133736  10.040732  18.274598  12.501915  6.043498  -1.538891  0.150287  0.274239  1.95263  0.432634  0.736911  5.339203  0.432634  0.736911  5.339203  6.479692  19.922782  9.289612  150.737443  33.618303  -162.105281  -11.321098  -41.420659  118.153644  101.936565  14.844391  -38.253091  21.176316  -9.434937  19.778922  85.576846  63.424626  15.787236  -69.383263  55.619842  -81.937571  82.304282  13.204212  37.624182  -5.259432  -1.537693  -1.465751  -3.948053  -1.140764  -1.112581  
0.0  101.685394  0.0  0.724324  27.634675  -98.001322  2.163891  -17.692331  1.302247  -18.891581  10.494253  20.140983  1.038041  2.489502  2.286773  -25.562057  16.328072  -3.19892  -17.506868  9.976383  17.962823  12.121996  5.972762  -1.551469  0.140221  0.278776  1.983986  0.405858  0.749917  5.424836  0.405858  0.749917  5.424836  6.041982  20.109212  9.17791  149.97498  34.097474  -162.222052  -11.352434  -42.04138  117.707818  100.232243  11.470124  -38.382246  21.421736  -9.597357  19.949001  83.633722  63.715033  13.996986  -69.560861  55.76142  -82.260356  82.807823  13.201122  37.658368  -5.546927  -1.480542  -1.487794  -4.163597  -1.097018  -1.129335  
0.0  101.685394  0.0  0.619384  28.487984  -98.129488  2.458093  -18.0246  1.350185  -19.376256  10.453891  19.657079  0.566498  2.42328  2.283005  -25.556358  16.272315  -2.661981  -17.990397  9.911319  17.609485  11.856006  5.888015  -1.526689  0.095648  0.283904  1.998153  0.284695  0.767513  5.463089  0.284695  0.767513  5.463089  5.815815  20.347111  9.165932  149.475108  34.538876  -162.277983  -11.177894  -42.71409  117.332034  100.48443  11.568205  -38.468425  21.456912  -9.582487  20.090805  81.989275  63.828275  12.137397  -69.674219  55.729198  -82.615801  82.866063  13.387475  37.351023  -5.560305  -1.521817  -1.487484  -4.173717  -1.127949  -1.129507  
0.0  101.685394  0.0  0.573218  29.323527  -98.15338  2.671577  -18.183228  1.250468  -20.790296  10.410265  18.515629  0.925791  2.569101  2.777666  -25.336787  16.24665  -2.098428  -18.604278  9.846793  17.269937  11.481448  5.777465  -1.568225  0.062334  0.300348  2.020529  0.195338  0.815108  5.523942  0.195338  0.815108  5.523942  5.47952  20.472197  9.009951  147.94732  34.965164  -162.400926  -11.359317  -43.562292  116.327089  100.679679  11.607781  -38.620371  21.767446  -9.659511  20.171685  79.960577  64.042567  10.275628  -69.60704  55.496689  -82.916317  82.843774  13.613329  37.004314  -5.771467  -1.560292  -1.579779  -4.332401  -1.155432  -1.199626  
0.0  101.685394  0.0  0.556475  30.13418  -98.113356  3.003615  -18.322163  1.196127  -21.657437  10.394451  17.944912  0.827214  2.488721  2.832611  -25.537348  16.224975  -1.791454  -19.087818  9.818905  16.963047  11.386053  5.686928  -1.573755  9.89E-4  0.315805  2.02877  0.029181  0.862441  5.545743  0.029181  0.862441  5.545743  5.332189  20.683474  8.935596  147.392674  35.305246  -162.418294  -11.135674  -43.968178  115.919027  100.769822  11.545105  -38.742081  21.869688  -9.554983  20.220578  78.464387  64.073251  8.577387  -69.565795  55.279787  -83.15446  82.724006  13.863174  36.756606  -5.770704  -1.635786  -1.627784  -4.332128  -1.211609  -1.236336  
0.0  101.685394  0.0  0.701374  31.004253  -98.032972  2.986645  -18.231673  1.10515  -22.566134  10.386263  17.429198  0.742347  2.417761  2.839175  -25.871666  16.395642  -1.538399  -19.49538  9.780882  16.709464  11.154689  5.556886  -1.612232  -0.048816  0.365723  2.065204  -0.102112  1.002996  5.644686  -0.102112  1.002996  5.644686  4.995983  20.76214  8.694552  146.510598  35.619158  -162.455234  -11.085594  -44.172048  115.402438  100.416956  9.653955  -38.589585  21.944892  -9.5309  20.095648  76.731779  64.188173  7.102747  -69.40061  54.803255  -83.366095  82.577312  14.019256  36.759733  -5.939136  -1.756496  -1.738672  -4.459043  -1.300635  -1.321124  
0.0  101.685394  0.0  0.796304  31.679179  -97.95266  2.968948  -18.167737  0.974473  -23.193646  10.357414  17.17064  0.748505  2.403144  2.900779  -26.280466  16.539291  -1.391614  -19.893717  9.738283  16.472889  11.235369  5.474651  -1.605206  -0.101292  0.399942  2.074987  -0.242361  1.100962  5.670566  -0.242361  1.100962  5.670566  4.842311  20.949489  8.601617  146.062385  35.927573  -162.408179  -10.919601  -44.064744  115.118211  100.276939  9.45506  -38.398581  22.025209  -9.434902  20.063718  75.723782  64.046745  5.793695  -69.560148  54.844602  -83.522444  82.591692  14.06874  36.977729  -5.957375  -1.854816  -1.746031  -4.472984  -1.374261  -1.327645  
0.0  101.685394  0.0  0.951847  32.60401  -97.850138  2.407545  -17.961002  0.760557  -24.390565  10.334812  16.430105  1.458549  2.627011  3.479216  -26.989178  16.816399  -1.298698  -20.563503  9.659489  16.257825  11.467185  5.485146  -1.622215  -0.178665  0.4542  2.091986  -0.448722  1.255882  5.715477  -0.448722  1.255882  5.715476  4.520373  21.038848  8.436969  145.567163  36.253886  -162.362532  -10.8424  -43.824272  114.780124  100.118885  9.262312  -38.157135  22.024076  -9.421084  19.903542  74.912874  63.802454  4.664282  -69.799654  55.091232  -83.631947  82.447107  14.220791  37.166656  -6.099554  -1.967939  -1.744909  -4.579879  -1.458727  -1.328359  
0.0  101.685394  0.0  0.982931  33.328903  -97.855631  1.82008  -17.869789  0.528937  -24.519851  10.406125  16.595936  1.416777  2.621975  3.539675  -27.626864  16.997055  -1.196417  -20.817353  9.608857  16.145091  11.577998  5.469958  -1.614102  -0.238698  0.488825  2.101051  -0.609521  1.355708  5.738863  -0.609521  1.355708  5.738862  4.306789  21.174329  8.408933  145.284921  36.602381  -162.237392  -10.663824  -43.553862  114.496958  100.026604  9.169925  -37.991861  22.005112  -9.387209  19.853609  74.22432  63.541931  3.565402  -70.170008  55.347551  -83.823203  82.600645  14.208096  37.450865  -6.169859  -2.077418  -1.688849  -4.632671  -1.541216  -1.287636  
0.0  101.685394  0.0  1.050874  34.272053  -97.715372  0.808517  -17.687556  0.066465  -24.538676  10.543844  16.899243  1.432601  2.626182  3.58969  -28.653588  17.144928  -1.347876  -22.14636  9.665241  15.885814  12.758627  5.722988  -1.538285  -0.332699  0.533578  2.096117  -0.862521  1.486016  5.722948  -0.862521  1.486016  5.722947  3.960341  21.283031  8.331168  145.065981  37.058012  -162.136875  -10.554967  -43.297197  114.18456  100.350117  9.590273  -37.811449  21.955626  -9.388491  19.729973  73.617845  63.254385  2.545914  -70.519589  55.662862  -84.03995  82.697131  14.184908  37.64148  -6.30646  -2.172719  -1.643901  -4.735164  -1.612795  -1.255367  
0.0  101.685394  0.0  0.982157  34.992175  -97.702782  -0.169491  -17.665757  -0.396505  -24.324034  10.772123  17.453766  1.429643  2.678218  3.617232  -29.219275  17.150908  -1.362716  -22.269044  9.724835  15.989588  12.744882  5.795436  -1.579193  -0.391868  0.551315  2.089055  -1.022781  1.539464  5.702063  -1.022781  1.539464  5.702063  3.722857  21.448904  8.370516  144.810565  37.483061  -162.033648  -10.397037  -43.231252  113.874513  100.428261  9.752873  -37.942432  21.874168  -9.366968  19.671404  73.008194  62.975829  1.548231  -70.782573  55.790924  -84.273941  82.858892  14.084686  37.755322  -6.425872  -2.258253  -1.600362  -4.824734  -1.677098  -1.224033  
